<svg width="32" height="32" viewBox="0 0 32 32" fill="none" xmlns="http://www.w3.org/2000/svg">
<path fill-rule="evenodd" clip-rule="evenodd" d="M10.3449 2.66669H21.655C22.7283 2.66667 23.6141 2.66666 24.3357 2.72561C25.0852 2.78685 25.7741 2.91827 26.4212 3.24799C27.4248 3.75931 28.2407 4.57521 28.752 5.57874C29.0817 6.22585 29.2131 6.91479 29.2744 7.66425C29.3333 8.38584 29.3333 9.27165 29.3333 10.3449V21.6551C29.3333 22.7284 29.3333 23.6142 29.2744 24.3358C29.2131 25.0853 29.0817 25.7742 28.752 26.4213C28.2407 27.4248 27.4248 28.2407 26.4212 28.7521C25.7741 29.0818 25.0852 29.2132 24.3357 29.2744C23.6141 29.3334 22.7283 29.3334 21.6551 29.3334H10.3449C9.27158 29.3334 8.38578 29.3334 7.66419 29.2744C6.91473 29.2132 6.22579 29.0818 5.57868 28.7521C4.57515 28.2407 3.75925 27.4248 3.24793 26.4213C2.9182 25.7742 2.78679 25.0853 2.72555 24.3358C2.6666 23.6142 2.66661 22.7284 2.66663 21.6551V10.345C2.66661 9.27166 2.6666 8.38585 2.72555 7.66425C2.78679 6.91479 2.9182 6.22585 3.24793 5.57874C3.75925 4.57521 4.57515 3.75931 5.57868 3.24799C6.22579 2.91827 6.91473 2.78685 7.66419 2.72561C8.38579 2.66666 9.2716 2.66667 10.3449 2.66669ZM7.88135 5.38342C7.29679 5.43118 6.99785 5.51775 6.78932 5.624C6.28755 5.87967 5.87961 6.28762 5.62394 6.78938C5.51769 6.99791 5.43112 7.29685 5.38336 7.88141C5.33433 8.48153 5.33329 9.25792 5.33329 10.4V21.6C5.33329 22.7421 5.33433 23.5185 5.38336 24.1186C5.43112 24.7032 5.51769 25.0021 5.62394 25.2107C5.87961 25.7124 6.28755 26.1204 6.78932 26.376C6.99785 26.4823 7.29679 26.5689 7.88135 26.6166C8.48146 26.6657 9.25786 26.6667 10.4 26.6667H21.6C22.7421 26.6667 23.5185 26.6657 24.1186 26.6166C24.7031 26.5689 25.0021 26.4823 25.2106 26.376C25.7124 26.1204 26.1203 25.7124 26.376 25.2107C26.4822 25.0021 26.5688 24.7032 26.6166 24.1186C26.6656 23.5185 26.6666 22.7421 26.6666 21.6V10.4C26.6666 9.25792 26.6656 8.48153 26.6166 7.88141C26.5688 7.29685 26.4822 6.99791 26.376 6.78938C26.1203 6.28762 25.7124 5.87967 25.2106 5.624C25.0021 5.51775 24.7031 5.43118 24.1186 5.38342C23.5185 5.33439 22.7421 5.33336 21.6 5.33336H10.4C9.25786 5.33336 8.48146 5.33439 7.88135 5.38342Z" fill="white"/>
</svg>
