<svg width="32" height="32" viewBox="0 0 32 32" fill="none" xmlns="http://www.w3.org/2000/svg">
<path fill-rule="evenodd" clip-rule="evenodd" d="M11.2786 1.333C11.2962 1.33317 11.3119 1.33333 11.3253 1.33333H18.9994C19.4367 1.33333 19.8462 1.54777 20.0953 1.9072C20.3444 2.26663 20.4014 2.72536 20.2478 3.13482L17.9234 9.33333L25.5383 9.33332C25.8903 9.33327 26.2384 9.33321 26.5196 9.35826C26.7736 9.38089 27.2888 9.44038 27.721 9.80545C28.2062 10.2153 28.4678 10.8312 28.4261 11.4649C28.3889 12.0294 28.0741 12.4415 27.914 12.6401C27.7369 12.8599 27.4953 13.1104 27.2509 13.3637L10.9592 30.2588C10.532 30.7018 9.85724 30.7949 9.32611 30.4842C8.79497 30.1735 8.54547 29.5396 8.72229 28.9502L12.2073 17.3333H5.72529C5.71132 17.3333 5.69727 17.3333 5.68315 17.3333C5.43485 17.3334 5.16599 17.3335 4.93934 17.3127C4.70172 17.291 4.30546 17.2336 3.9318 16.9722C3.48099 16.6569 3.17996 16.1699 3.09956 15.6256C3.03291 15.1746 3.15878 14.7945 3.2456 14.5722C3.3284 14.3602 3.44871 14.1198 3.55981 13.8977C3.56613 13.8851 3.57241 13.8725 3.57867 13.86L9.17867 2.66001C9.18467 2.648 9.19152 2.63396 9.19923 2.61815C9.27338 2.46611 9.42717 2.15078 9.67864 1.90449C9.89043 1.69706 10.1457 1.5393 10.4259 1.44264C10.7587 1.32786 11.1095 1.33133 11.2786 1.333ZM11.4901 3.99999L6.15677 14.6667H13.9994C14.4209 14.6667 14.8175 14.8659 15.0691 15.2041C15.3207 15.5422 15.3976 15.9794 15.2765 16.3831L12.8566 24.4494L24.8614 12H15.9994C15.5621 12 15.1526 11.7856 14.9035 11.4261C14.6544 11.0667 14.5974 10.608 14.7509 10.1985L17.0754 3.99999H11.4901Z" fill="#0E0EDD"/>
</svg>
