<svg width="32" height="32" viewBox="0 0 32 32" fill="none" xmlns="http://www.w3.org/2000/svg">
<path fill-rule="evenodd" clip-rule="evenodd" d="M11.095 3.40977L12.505 3.56644C12.5244 3.5686 12.5435 3.57072 12.5624 3.57281C12.8983 3.61007 13.1481 3.63778 13.3734 3.68258C15.702 4.14557 17.4441 6.09203 17.6471 8.45748C17.6668 8.68638 17.6667 8.93766 17.6667 9.27566C17.6667 9.29461 17.6667 9.31384 17.6667 9.33335C17.6667 10.0697 17.0697 10.6667 16.3333 10.6667C15.597 10.6667 15 10.0697 15 9.33335C15 8.91258 14.9988 8.78517 14.9902 8.6855C14.8887 7.50277 14.0176 6.52954 12.8534 6.29805C12.7553 6.27854 12.6288 6.26327 12.2106 6.2168L10.8487 6.06548C9.80658 5.94969 9.09442 5.87136 8.53975 5.84935C7.99536 5.82775 7.71388 5.86743 7.52059 5.92928C6.79816 6.16046 6.20837 6.68835 5.89883 7.38083C5.81601 7.5661 5.74549 7.84149 5.70684 8.38492C5.66746 8.93863 5.66667 9.6551 5.66667 10.7036V21.2964C5.66667 22.3449 5.66746 23.0614 5.70684 23.6151C5.74549 24.1585 5.81601 24.4339 5.89883 24.6192C6.20837 25.3117 6.79816 25.8396 7.52059 26.0707C7.71387 26.1326 7.99536 26.1723 8.53975 26.1507C9.09443 26.1287 9.8066 26.0503 10.8487 25.9345L12.2106 25.7832C12.6286 25.7368 12.7553 25.7215 12.8534 25.702C14.0176 25.4705 14.8887 24.4973 14.9902 23.3145C14.9988 23.2149 15 23.0875 15 22.6667C15 21.9303 15.597 21.3333 16.3333 21.3333C17.0697 21.3333 17.6667 21.9303 17.6667 22.6667C17.6667 22.6862 17.6667 22.7054 17.6667 22.7244C17.6667 23.0624 17.6668 23.3136 17.6471 23.5425C17.4441 25.908 15.702 27.8545 13.3734 28.3174C13.1481 28.3622 12.8981 28.39 12.5622 28.4272L11.095 28.5903C10.1129 28.6994 9.30619 28.789 8.64547 28.8152C7.96368 28.8423 7.32729 28.8088 6.70785 28.6105C5.26299 28.1482 4.08341 27.0924 3.46432 25.7074C3.1989 25.1137 3.0953 24.4849 3.04689 23.8043C2.99998 23.1447 2.99999 22.333 3 21.3449V10.6551C2.99999 9.66703 2.99998 8.85532 3.04689 8.19574C3.0953 7.51513 3.1989 6.88635 3.46432 6.29258C4.08341 4.90762 5.26299 3.85184 6.70785 3.38949C7.32729 3.19126 7.96367 3.15773 8.64546 3.18478C9.30619 3.21099 10.1129 3.30064 11.095 3.40977ZM20.7239 8.39054C21.2446 7.86984 22.0888 7.86984 22.6095 8.39054L29.2761 15.0572C29.7968 15.5779 29.7968 16.4221 29.2761 16.9428L22.6095 23.6095C22.0888 24.1302 21.2446 24.1302 20.7239 23.6095C20.2032 23.0888 20.2032 22.2446 20.7239 21.7239L25.1144 17.3333H12.3333C11.597 17.3333 11 16.7364 11 16C11 15.2636 11.597 14.6667 12.3333 14.6667H25.1144L20.7239 10.2762C20.2032 9.75546 20.2032 8.91124 20.7239 8.39054Z" fill="white"/>
</svg>
