<svg width="32" height="32" viewBox="0 0 32 32" fill="none" xmlns="http://www.w3.org/2000/svg">
<path fill-rule="evenodd" clip-rule="evenodd" d="M25.8856 6.11437C24.8442 5.07297 23.1558 5.07297 22.1144 6.11437C21.073 7.15577 21.073 8.84421 22.1144 9.88561C23.1558 10.927 24.8442 10.927 25.8856 9.88561C26.927 8.84421 26.927 7.15577 25.8856 6.11437ZM20.2288 4.22875C22.3116 2.14596 25.6885 2.14596 27.7713 4.22875C29.8541 6.31155 29.8541 9.68843 27.7713 11.7712C25.6885 13.854 22.3116 13.854 20.2288 11.7712C18.146 9.68843 18.146 6.31155 20.2288 4.22875ZM10.345 3.99999H14.6667C15.4031 3.99999 16 4.59694 16 5.33332C16 6.0697 15.4031 6.66666 14.6667 6.66666H10.4C9.25792 6.66666 8.48152 6.66769 7.88141 6.71672C7.29685 6.76448 6.99791 6.85105 6.78938 6.95731C6.28761 7.21297 5.87967 7.62092 5.624 8.12268C5.51775 8.33121 5.43118 8.63015 5.38342 9.21471C5.33439 9.81483 5.33335 10.5912 5.33335 11.7333V21.6C5.33335 22.7421 5.33439 23.5185 5.38342 24.1186C5.43118 24.7032 5.51775 25.0021 5.624 25.2106C5.87967 25.7124 6.28761 26.1203 6.78938 26.376C6.99791 26.4823 7.29685 26.5688 7.8814 26.6166C8.48152 26.6656 9.25791 26.6667 10.4 26.6667H20.2667C21.4088 26.6667 22.1852 26.6656 22.7853 26.6166C23.3699 26.5688 23.6688 26.4823 23.8773 26.376C24.3791 26.1203 24.787 25.7124 25.0427 25.2106C25.149 25.0021 25.2355 24.7032 25.2833 24.1186C25.3323 23.5185 25.3334 22.7421 25.3334 21.6V17.3333C25.3334 16.5969 25.9303 16 26.6667 16C27.4031 16 28 16.5969 28 17.3333V21.6551C28 22.7284 28 23.6142 27.9411 24.3358C27.8799 25.0852 27.7484 25.7742 27.4187 26.4213C26.9074 27.4248 26.0915 28.2407 25.088 28.752C24.4409 29.0817 23.7519 29.2132 23.0025 29.2744C22.2809 29.3334 21.3951 29.3333 20.3218 29.3333H10.3449C9.27164 29.3333 8.38584 29.3334 7.66425 29.2744C6.91479 29.2132 6.22585 29.0817 5.57874 28.752C4.57521 28.2407 3.75931 27.4248 3.24799 26.4213C2.91827 25.7742 2.78685 25.0852 2.72561 24.3358C2.66666 23.6142 2.66667 22.7283 2.66669 21.6551V11.6783C2.66667 10.605 2.66666 9.71915 2.72561 8.99756C2.78685 8.24809 2.91827 7.55915 3.24799 6.91204C3.75931 5.90851 4.57521 5.09261 5.57874 4.58129C6.22585 4.25157 6.91479 4.12015 7.66425 4.05891C8.38585 3.99996 9.27166 3.99997 10.345 3.99999Z" fill="white"/>
</svg>
