<svg width="32" height="32" viewBox="0 0 32 32" fill="none" xmlns="http://www.w3.org/2000/svg">
<path fill-rule="evenodd" clip-rule="evenodd" d="M9.59873 2H22.4013C23.358 1.99998 24.1515 1.99997 24.8032 2.0503C25.483 2.1028 26.1094 2.2154 26.7112 2.4943C27.651 2.9298 28.4437 3.62954 28.9924 4.50808C29.3438 5.07071 29.5332 5.67826 29.6696 6.34634C29.8004 6.98678 29.8988 7.77415 30.0175 8.7235L30.6564 13.8346C30.6725 13.9639 30.6696 14.0911 30.6498 14.2135C30.661 14.3631 30.6667 14.5142 30.6667 14.6667C30.6667 16.5515 29.7975 18.2334 28.4382 19.3333C29.7975 20.4333 30.6667 22.1152 30.6667 24C30.6667 27.3137 27.9804 30 24.6667 30H7.33333C4.01962 30 1.33333 27.3137 1.33333 24C1.33333 22.1152 2.20244 20.4333 3.56178 19.3333C2.20244 18.2334 1.33333 16.5515 1.33333 14.6667C1.33333 14.5142 1.33902 14.3631 1.35019 14.2135C1.33039 14.0911 1.32747 13.9639 1.34363 13.8346L1.98252 8.72345C2.10117 7.77412 2.19958 6.98677 2.33035 6.34633C2.46677 5.67825 2.65619 5.0707 3.00759 4.50808C3.55629 3.62954 4.34895 2.9298 5.28877 2.4943C5.89063 2.2154 6.51698 2.1028 7.19682 2.0503C7.84853 1.99997 8.64201 1.99998 9.59873 2ZM4.59452 9.32681C5.4156 8.90483 6.34665 8.66667 7.33333 8.66667H24.6667C25.6533 8.66667 26.5844 8.90483 27.4055 9.32681L27.3777 9.10489C27.2511 8.0921 27.1646 7.40744 27.0569 6.87985C26.9525 6.36854 26.8463 6.10595 26.7306 5.92071C26.4563 5.48144 26.06 5.13157 25.59 4.91382C25.3919 4.82199 25.1182 4.74923 24.5978 4.70905C24.061 4.66759 23.3709 4.66667 22.3502 4.66667H9.6498C8.62912 4.66667 7.93902 4.66759 7.40215 4.70905C6.88184 4.74923 6.60811 4.82199 6.40995 4.91382C5.94004 5.13157 5.54371 5.48144 5.26936 5.92071C5.15366 6.10595 5.04751 6.36855 4.94311 6.87985C4.83537 7.40744 4.74886 8.09209 4.62226 9.10489L4.59452 9.32681ZM7.33333 20.6667C5.49238 20.6667 4 22.1591 4 24C4 25.841 5.49238 27.3333 7.33333 27.3333H24.6667C26.5076 27.3333 28 25.841 28 24C28 22.1591 26.5076 20.6667 24.6667 20.6667H7.33333ZM24.6667 18C26.5076 18 28 16.5076 28 14.6667C28 12.8257 26.5076 11.3333 24.6667 11.3333H7.33333C5.49238 11.3333 4 12.8257 4 14.6667C4 16.5076 5.49238 18 7.33333 18H24.6667ZM6.66666 14.6667C6.66666 13.9303 7.26362 13.3333 8 13.3333H8.01333C8.74971 13.3333 9.34666 13.9303 9.34666 14.6667C9.34666 15.403 8.74971 16 8.01333 16H8C7.26362 16 6.66666 15.403 6.66666 14.6667ZM14.6667 14.6667C14.6667 13.9303 15.2636 13.3333 16 13.3333H24C24.7364 13.3333 25.3333 13.9303 25.3333 14.6667C25.3333 15.403 24.7364 16 24 16H16C15.2636 16 14.6667 15.403 14.6667 14.6667ZM6.66666 24C6.66666 23.2636 7.26362 22.6667 8 22.6667H8.01333C8.74971 22.6667 9.34666 23.2636 9.34666 24C9.34666 24.7364 8.74971 25.3333 8.01333 25.3333H8C7.26362 25.3333 6.66666 24.7364 6.66666 24ZM14.6667 24C14.6667 23.2636 15.2636 22.6667 16 22.6667H24C24.7364 22.6667 25.3333 23.2636 25.3333 24C25.3333 24.7364 24.7364 25.3333 24 25.3333H16C15.2636 25.3333 14.6667 24.7364 14.6667 24Z" fill="#0E0EDD"/>
</svg>
