<svg width="32" height="32" viewBox="0 0 32 32" fill="none" xmlns="http://www.w3.org/2000/svg">
<path d="M16 20C18.2092 20 20 18.2091 20 16C20 13.7909 18.2092 12 16 12C13.7909 12 12 13.7909 12 16C12 18.2091 13.7909 20 16 20Z" stroke="white" stroke-width="2" stroke-linecap="round" stroke-linejoin="round"/>
<path d="M24.9697 19.6364C24.8084 20.0019 24.7602 20.4075 24.8315 20.8007C24.9028 21.1939 25.0903 21.5567 25.3697 21.8424L25.4424 21.9151C25.6678 22.1403 25.8467 22.4077 25.9686 22.702C26.0906 22.9963 26.1534 23.3117 26.1534 23.6303C26.1534 23.9489 26.0906 24.2643 25.9686 24.5586C25.8467 24.8529 25.6678 25.1203 25.4424 25.3454C25.2173 25.5708 24.9499 25.7497 24.6556 25.8716C24.3613 25.9936 24.0459 26.0564 23.7273 26.0564C23.4087 26.0564 23.0933 25.9936 22.799 25.8716C22.5047 25.7497 22.2373 25.5708 22.0121 25.3454L21.9394 25.2727C21.6537 24.9933 21.2909 24.8058 20.8977 24.7345C20.5045 24.6632 20.0989 24.7114 19.7334 24.8727C19.3748 25.0264 19.0691 25.2815 18.8537 25.6067C18.6384 25.9319 18.5228 26.313 18.5212 26.703V26.9091C18.5212 27.552 18.2658 28.1686 17.8112 28.6233C17.3566 29.0779 16.7399 29.3333 16.097 29.3333C15.454 29.3333 14.8374 29.0779 14.3828 28.6233C13.9282 28.1686 13.6727 27.552 13.6727 26.9091V26.8C13.6634 26.3988 13.5335 26.0097 13.3 25.6833C13.0666 25.3568 12.7403 25.1082 12.3637 24.9697C11.9981 24.8083 11.5925 24.7602 11.1993 24.8315C10.8061 24.9028 10.4433 25.0902 10.1576 25.3697L10.0849 25.4424C9.85972 25.6678 9.59236 25.8466 9.29806 25.9686C9.00376 26.0906 8.6883 26.1534 8.36972 26.1534C8.05113 26.1534 7.73568 26.0906 7.44138 25.9686C7.14708 25.8466 6.87971 25.6678 6.65457 25.4424C6.42917 25.2173 6.25036 24.9499 6.12836 24.6556C6.00636 24.3613 5.94357 24.0458 5.94357 23.7273C5.94357 23.4087 6.00636 23.0932 6.12836 22.7989C6.25036 22.5046 6.42917 22.2373 6.65457 22.0121L6.72729 21.9394C7.00673 21.6537 7.19418 21.2909 7.26548 20.8977C7.33678 20.5045 7.28864 20.0989 7.12729 19.7333C6.97364 19.3748 6.71851 19.0691 6.39331 18.8537C6.06811 18.6383 5.68703 18.5228 5.29699 18.5212H5.09093C4.44798 18.5212 3.83136 18.2658 3.37673 17.8112C2.9221 17.3565 2.66669 16.7399 2.66669 16.097C2.66669 15.454 2.9221 14.8374 3.37673 14.3828C3.83136 13.9281 4.44798 13.6727 5.09093 13.6727H5.20002C5.60123 13.6633 5.99033 13.5335 6.31675 13.3C6.64316 13.0665 6.8918 12.7403 7.03032 12.3636C7.19167 11.998 7.23981 11.5925 7.16851 11.1993C7.09721 10.8061 6.90976 10.4432 6.63032 10.1576L6.5576 10.0848C6.3322 9.85969 6.15339 9.59232 6.03139 9.29803C5.90939 9.00373 5.8466 8.68827 5.8466 8.36969C5.8466 8.0511 5.90939 7.73564 6.03139 7.44135C6.15339 7.14705 6.3322 6.87968 6.5576 6.65454C6.78274 6.42914 7.05011 6.25033 7.34441 6.12833C7.63871 6.00633 7.95416 5.94354 8.27275 5.94354C8.59133 5.94354 8.90679 6.00633 9.20109 6.12833C9.49539 6.25033 9.76275 6.42914 9.9879 6.65454L10.0606 6.72726C10.3463 7.0067 10.7091 7.19415 11.1023 7.26545C11.4955 7.33675 11.9011 7.28861 12.2667 7.12726H12.3637C12.7222 6.97361 13.0279 6.71848 13.2433 6.39328C13.4586 6.06808 13.5742 5.687 13.5758 5.29696V5.0909C13.5758 4.44795 13.8312 3.83133 14.2858 3.3767C14.7405 2.92207 15.3571 2.66666 16 2.66666C16.643 2.66666 17.2596 2.92207 17.7142 3.3767C18.1689 3.83133 18.4243 4.44795 18.4243 5.0909V5.19999C18.4258 5.59003 18.5414 5.97111 18.7568 6.29631C18.9721 6.62151 19.2779 6.87664 19.6364 7.03029C20.002 7.19164 20.4075 7.23978 20.8007 7.16848C21.1939 7.09718 21.5568 6.90973 21.8424 6.63029L21.9152 6.55757C22.1403 6.33217 22.4077 6.15336 22.702 6.03136C22.9963 5.90936 23.3117 5.84657 23.6303 5.84657C23.9489 5.84657 24.2644 5.90936 24.5587 6.03136C24.853 6.15336 25.1203 6.33217 25.3455 6.55757C25.5709 6.78271 25.7497 7.05008 25.8717 7.34438C25.9937 7.63868 26.0565 7.95413 26.0565 8.27272C26.0565 8.5913 25.9937 8.90676 25.8717 9.20106C25.7497 9.49536 25.5709 9.76272 25.3455 9.98787L25.2727 10.0606C24.9933 10.3463 24.8059 10.7091 24.7346 11.1023C24.6633 11.4955 24.7114 11.9011 24.8727 12.2667V12.3636C25.0264 12.7221 25.2815 13.0279 25.6067 13.2433C25.9319 13.4586 26.313 13.5742 26.703 13.5757H26.9091C27.5521 13.5757 28.1687 13.8312 28.6233 14.2858C29.0779 14.7404 29.3334 15.357 29.3334 16C29.3334 16.6429 29.0779 17.2596 28.6233 17.7142C28.1687 18.1688 27.5521 18.4242 26.9091 18.4242H26.8C26.41 18.4258 26.0289 18.5414 25.7037 18.7567C25.3785 18.9721 25.1234 19.2778 24.9697 19.6364Z" stroke="white" stroke-width="2" stroke-linecap="round" stroke-linejoin="round"/>
</svg>
