<svg width="33" height="32" viewBox="0 0 33 32" fill="none" xmlns="http://www.w3.org/2000/svg">
<path fill-rule="evenodd" clip-rule="evenodd" d="M16.5 4.00001C9.87259 4.00001 4.5 9.37259 4.5 16C4.5 22.6274 9.87259 28 16.5 28C23.1274 28 28.5 22.6274 28.5 16C28.5 9.37259 23.1274 4.00001 16.5 4.00001ZM1.83334 16C1.83334 7.89983 8.39983 1.33334 16.5 1.33334C24.6002 1.33334 31.1667 7.89983 31.1667 16C31.1667 24.1002 24.6002 30.6667 16.5 30.6667C8.39983 30.6667 1.83334 24.1002 1.83334 16ZM16.5 8.00001C12.0817 8.00001 8.5 11.5817 8.5 16C8.5 17.7015 9.02968 19.2753 9.93317 20.5705C10.3545 21.1745 10.2064 22.0056 9.60239 22.4269C8.99842 22.8482 8.16729 22.7001 7.74601 22.0961C6.54049 20.3679 5.83334 18.2645 5.83334 16C5.83334 10.109 10.609 5.33334 16.5 5.33334C17.1417 5.33334 17.7712 5.39016 18.3835 5.49935C19.1085 5.62862 19.5914 6.3211 19.4621 7.04604C19.3328 7.77099 18.6403 8.25387 17.9154 8.1246C17.4569 8.04284 16.984 8.00001 16.5 8.00001ZM23.4427 9.0572C23.9634 9.5779 23.9634 10.4221 23.4427 10.9428L19.0763 15.3092C19.1353 15.5295 19.1667 15.7611 19.1667 16C19.1667 17.4728 17.9728 18.6667 16.5 18.6667C15.0272 18.6667 13.8333 17.4728 13.8333 16C13.8333 14.5273 15.0272 13.3333 16.5 13.3333C16.7388 13.3333 16.9704 13.3647 17.1906 13.4236L21.5571 9.0572C22.0778 8.5365 22.922 8.5365 23.4427 9.0572ZM25.3341 12.6973C26.0536 12.5402 26.7641 12.9961 26.9212 13.7155C27.0821 14.4527 27.1667 15.2173 27.1667 16C27.1667 18.2645 26.4595 20.3678 25.254 22.0961C24.8328 22.7 24.0016 22.8482 23.3977 22.4269C22.7937 22.0056 22.6456 21.1745 23.0669 20.5705C23.9703 19.2752 24.5 17.7015 24.5 16C24.5 15.4097 24.4363 14.8359 24.3159 14.2844C24.1588 13.5649 24.6147 12.8544 25.3341 12.6973Z" fill="#0E0EDD"/>
</svg>
