<svg width="33" height="32" viewBox="0 0 33 32" fill="none" xmlns="http://www.w3.org/2000/svg">
<path fill-rule="evenodd" clip-rule="evenodd" d="M13.1667 5.33332C10.9575 5.33332 9.16668 7.12418 9.16668 9.33332C9.16668 11.5425 10.9575 13.3333 13.1667 13.3333C15.3758 13.3333 17.1667 11.5425 17.1667 9.33332C17.1667 7.12418 15.3758 5.33332 13.1667 5.33332ZM6.50001 9.33332C6.50001 5.65142 9.48478 2.66666 13.1667 2.66666C16.8486 2.66666 19.8333 5.65142 19.8333 9.33332C19.8333 13.0152 16.8486 16 13.1667 16C9.48478 16 6.50001 13.0152 6.50001 9.33332ZM19.9308 3.88738C20.2071 3.2048 20.9844 2.87545 21.667 3.15175C24.1077 4.13974 25.8333 6.53341 25.8333 9.33332C25.8333 12.1332 24.1077 14.5269 21.667 15.5149C20.9844 15.7912 20.2071 15.4618 19.9308 14.7793C19.6545 14.0967 19.9838 13.3194 20.6664 13.0431C22.1348 12.4487 23.1667 11.0099 23.1667 9.33332C23.1667 7.65673 22.1348 6.21797 20.6664 5.62358C19.9838 5.34728 19.6545 4.56996 19.9308 3.88738ZM11.1193 18.6667H15.214C16.4164 18.6666 17.3863 18.6666 18.1756 18.7205C18.9873 18.7759 19.705 18.8926 20.3846 19.1741C22.0181 19.8508 23.3159 21.1486 23.9925 22.7821C24.274 23.4617 24.3908 24.1794 24.4462 24.9911C24.5 25.7804 24.5 26.7503 24.5 27.9526V28C24.5 28.7364 23.9031 29.3333 23.1667 29.3333C22.4303 29.3333 21.8333 28.7364 21.8333 28C21.8333 26.7392 21.8326 25.8604 21.7857 25.1726C21.7396 24.4967 21.6533 24.1031 21.5289 23.8026C21.1229 22.8225 20.3442 22.0438 19.3641 21.6378C19.0636 21.5133 18.67 21.4271 17.9941 21.381C17.3062 21.334 16.4274 21.3333 15.1667 21.3333H11.1667C9.90592 21.3333 9.02713 21.334 8.33928 21.381C7.66339 21.4271 7.26979 21.5133 6.96928 21.6378C5.98917 22.0438 5.21047 22.8225 4.80449 23.8026C4.68002 24.1031 4.59378 24.4967 4.54767 25.1726C4.50073 25.8604 4.50001 26.7392 4.50001 28C4.50001 28.7364 3.90306 29.3333 3.16668 29.3333C2.4303 29.3333 1.83334 28.7364 1.83334 28L1.83334 27.9526C1.83333 26.7503 1.83333 25.7804 1.88718 24.9911C1.94256 24.1794 2.05931 23.4617 2.34081 22.7821C3.01744 21.1486 4.31527 19.8508 5.94879 19.1741C6.62839 18.8926 7.3461 18.7759 8.15775 18.7205C8.94709 18.6666 9.91697 18.6666 11.1193 18.6667ZM24.5421 19.8357C24.7256 19.1225 25.4526 18.6932 26.1657 18.8768C29.0408 19.6168 31.1667 22.2251 31.1667 25.3333V28C31.1667 28.7364 30.5697 29.3333 29.8333 29.3333C29.097 29.3333 28.5 28.7364 28.5 28V25.3333C28.5 23.4713 27.2265 21.9034 25.501 21.4593C24.7879 21.2757 24.3585 20.5488 24.5421 19.8357Z" fill="#0E0EDD"/>
</svg>
